<svg width="54" height="54" viewBox="0 0 54 54" fill="none" xmlns="http://www.w3.org/2000/svg">
<path d="M27.6912 53.8097C31.711 52.1029 35.4409 49.6909 38.7097 46.7979C42.0047 43.8785 44.9109 40.3266 46.6506 36.2606C47.5468 34.1584 48.1398 31.9837 48.3376 29.7036C48.443 28.4844 48.4035 27.2521 48.4035 26.0263V22.125V11.8249C48.4035 10.6584 48.4496 9.47879 48.4035 8.31245V8.27291C48.4035 7.66004 47.9883 7.19215 47.4348 7.001C45.1546 6.21021 42.868 5.41941 40.5878 4.62855C36.9897 3.38304 33.3915 2.1309 29.8001 0.885506C29.0027 0.608724 28.2118 0.292405 27.4014 0.0551715C26.9994 -0.0634486 26.7226 0.0288118 26.3733 0.147431C25.9647 0.292407 25.5496 0.430804 25.1409 0.575781C21.6943 1.76856 18.2545 2.96137 14.8079 4.1541C12.1126 5.08988 9.42381 6.01912 6.72853 6.95482C6.6824 6.968 6.64286 6.98777 6.59672 7.00095C6.04316 7.19205 5.62799 7.66653 5.62799 8.27285V11.0604V20.4907C5.62799 23.0608 5.6214 25.6309 5.62799 28.2009C5.63458 30.3823 6.0168 32.5766 6.7417 34.6328C8.22448 38.8701 10.9198 42.5934 14.1291 45.6973C17.2989 48.7617 21.0091 51.3251 24.9894 53.2099C25.4375 53.4208 25.8988 53.6251 26.3535 53.8228C26.6962 53.9677 26.9927 54.06 27.3683 53.9546C27.6715 53.8689 28.0076 53.6317 28.1591 53.3483C28.4557 52.7816 28.3634 51.8326 27.6846 51.5427C25.7867 50.7387 23.9614 49.7766 22.2149 48.6827C21.2857 48.1028 20.3829 47.4833 19.5064 46.8309L19.1901 46.5937C19.0912 46.5146 18.8869 46.4026 19.1044 46.5278C18.854 46.3828 18.6299 46.1521 18.4059 45.9742C17.9841 45.6315 17.5689 45.2757 17.1603 44.9132C16.3432 44.1883 15.559 43.4304 14.8078 42.6331C14.4387 42.2377 14.0763 41.8357 13.7204 41.4206C13.5491 41.2229 13.3843 41.0186 13.2196 40.8143C13.1405 40.7155 13.0549 40.61 12.9758 40.5112C12.9428 40.465 12.8769 40.4057 12.8572 40.3596C12.9165 40.498 12.956 40.4914 12.8572 40.353C12.2047 39.4897 11.5919 38.5934 11.0449 37.6577C10.7879 37.2162 10.5375 36.7681 10.3068 36.3134C10.1948 36.0893 10.0828 35.8587 9.97075 35.6281C9.91803 35.516 9.86531 35.3974 9.81259 35.2854C9.77305 35.1997 9.55558 34.7582 9.72033 35.0811C9.49627 34.6395 9.3447 34.1387 9.19313 33.6708C9.02179 33.1634 8.87681 32.656 8.7516 32.1419C8.62639 31.6411 8.52754 31.1336 8.44187 30.6262C8.4221 30.5208 8.41551 30.4088 8.39574 30.3033C8.48141 30.6526 8.39574 30.2901 8.38256 30.1847C8.34961 29.9013 8.32325 29.6246 8.30348 29.3412C8.21781 28.0825 8.26394 26.8173 8.26394 25.552V21.8221V11.7394C8.26394 10.6059 8.31666 9.45261 8.26394 8.31917V8.27963C7.94103 8.70139 7.61812 9.12974 7.29521 9.55153C9.56873 8.76073 11.8291 7.97656 14.0961 7.18571C17.7008 5.93357 21.3056 4.68805 24.9103 3.43603C25.734 3.15266 26.5578 2.8693 27.3749 2.57933H26.6764C28.9367 3.36354 31.2036 4.14779 33.464 4.9319C37.0687 6.18404 40.6668 7.42955 44.2716 8.68158C45.0954 8.96495 45.9125 9.24831 46.7363 9.53828C46.4134 9.11652 46.0905 8.68817 45.7675 8.26637V10.988V20.1877V27.6673C45.7675 28.234 45.7675 28.8073 45.728 29.3741C45.7082 29.6245 45.6885 29.8749 45.6621 30.1253C45.6555 30.1715 45.6028 30.58 45.6357 30.3691C45.6621 30.1846 45.6357 30.3428 45.6357 30.3823L45.5962 30.6591C45.4315 31.6806 45.181 32.6822 44.8515 33.6576C44.7725 33.8948 44.6868 34.1321 44.6011 34.3693C44.555 34.4879 44.5089 34.6065 44.4627 34.7185C44.4364 34.7779 44.4166 34.8372 44.3902 34.8965C44.3771 34.936 44.2716 35.1864 44.3507 35.0019C44.4232 34.824 44.265 35.193 44.2453 35.2326C44.1925 35.3512 44.1398 35.4632 44.0871 35.5753C43.9751 35.8191 43.8565 36.0629 43.7313 36.3002C43.2502 37.2425 42.7098 38.1519 42.1233 39.0284C41.8135 39.4832 41.4906 39.9313 41.1611 40.3728C41.1216 40.4255 41.0162 40.5771 41.1875 40.3398C41.148 40.3925 41.1084 40.4453 41.0689 40.4914C40.9964 40.5837 40.9239 40.6693 40.858 40.7616C40.6801 40.9791 40.5087 41.1899 40.3242 41.4074C39.6059 42.2509 38.848 43.0549 38.0573 43.8194C37.2731 44.5772 36.456 45.3022 35.6058 45.9941C35.4015 46.1588 35.1906 46.3236 34.9864 46.4883C34.8677 46.5806 35.0523 46.4422 35.0588 46.4356C35.0127 46.4752 34.9534 46.5147 34.9007 46.5542C34.7689 46.6531 34.6371 46.7519 34.5053 46.8508C34.0703 47.1737 33.6288 47.49 33.1807 47.7932C31.4475 48.9728 29.6287 50.0271 27.7308 50.9234C27.2826 51.1343 26.8213 51.3386 26.3667 51.5363C25.7274 51.8065 25.5429 52.795 25.8922 53.3419C26.314 54.0009 27.0125 54.0998 27.6913 53.8098L27.6912 53.8097Z" fill="#0064AD"/>
<path d="M15.8554 25.4146C17.9773 27.5366 20.0994 29.6586 22.2279 31.7872C22.5311 32.0903 22.8342 32.3934 23.1374 32.6966C23.6382 33.1974 24.4949 33.204 25.0024 32.6966L29.4968 28.2022C31.8626 25.8364 34.2349 23.4641 36.6074 21.0982C37.1543 20.5513 37.7013 20.0043 38.2482 19.4573C38.7359 18.9697 38.7754 18.0735 38.2482 17.5923C37.7211 17.1113 36.9039 17.0717 36.3832 17.5923C34.8873 19.0882 33.3848 20.5908 31.8889 22.0867C29.5164 24.4592 27.1507 26.8249 24.7782 29.1973C24.2313 29.7443 23.6843 30.2913 23.1374 30.8382H25.0024L17.7204 23.5562C17.2327 23.0686 16.3366 23.029 15.8554 23.5562C15.3743 24.0768 15.3348 24.8941 15.8554 25.4146L15.8554 25.4146Z" fill="#0064AD"/>
</svg>
