<svg width="54" height="54" viewBox="0 0 54 54" fill="none" xmlns="http://www.w3.org/2000/svg">
<path d="M24.9992 48.2288H29.2583C29.6935 48.2288 30.0461 47.8767 30.0461 47.441C30.0461 47.0058 29.694 46.6532 29.2583 46.6532H24.9992C24.564 46.6532 24.2113 47.0053 24.2113 47.441C24.2113 47.8762 24.564 48.2288 24.9992 48.2288Z" fill="#0064AD"/>
<path d="M43.8949 1H10.3611C9.92589 1 9.57327 1.35211 9.57327 1.78782V52.0879C9.57327 52.5231 9.92539 52.8757 10.3611 52.8757H43.8949C44.3301 52.8757 44.6827 52.5236 44.6827 52.0879V1.78782C44.6827 1.35213 44.3306 1 43.8949 1V1ZM43.1071 51.3001H11.1495V43.6158H43.1071V51.3001ZM43.1071 42.0401H11.1495V6.56542H43.1071V42.0401ZM43.1071 4.99046H11.1495V2.5756H43.1071V4.99046Z" fill="#0064AD"/>
<path d="M17.5206 29.8713L26.7028 35.7787C26.7276 35.7945 26.7553 35.8014 26.781 35.8143C26.8067 35.8271 26.8304 35.839 26.8576 35.8494C26.9457 35.882 27.0362 35.9043 27.1291 35.9043C27.2221 35.9043 27.3126 35.882 27.4006 35.8494C27.4278 35.8395 27.4516 35.8271 27.4773 35.8143C27.503 35.8014 27.5307 35.7945 27.5554 35.7787L36.7377 29.8713C36.9632 29.7269 37.0992 29.4766 37.0992 29.2091V19.418C37.0992 19.323 37.0765 19.232 37.0443 19.1455C37.0369 19.1257 37.0305 19.1064 37.0216 19.0876C36.9845 19.008 36.937 18.9343 36.8757 18.871C36.8653 18.8601 36.8529 18.8527 36.8421 18.8428C36.8089 18.8122 36.7768 18.7805 36.7382 18.7558L27.5559 12.8484C27.2958 12.6807 26.9635 12.6807 26.7033 12.8484L17.5211 18.7558C17.4825 18.7805 17.4504 18.8122 17.4172 18.8428C17.4064 18.8527 17.394 18.8601 17.3836 18.871C17.3218 18.9343 17.2743 19.008 17.2377 19.0876C17.2288 19.1064 17.2224 19.1257 17.215 19.145C17.1828 19.2315 17.1601 19.3225 17.1601 19.4175V29.2086C17.1591 29.4766 17.2951 29.7269 17.5206 29.8713L17.5206 29.8713ZM35.5238 28.7788L27.9171 33.6729V25.7561L35.5238 20.8616V28.7788ZM27.1293 14.4472L34.8551 19.4174L27.1293 24.3887L19.4035 19.4174L27.1293 14.4472ZM18.7347 20.861L26.3414 25.7555V33.6722L18.7347 28.7787V20.861Z" fill="#0064AD"/>
</svg>
