<svg width="54" height="54" viewBox="0 0 54 54" fill="none" xmlns="http://www.w3.org/2000/svg">
<path d="M30.4306 27.2571L25.3353 24.6972C25.144 24.6052 25.0232 24.411 25.0253 24.1989V22.7031L25.25 22.3931H25.2505C25.9036 21.469 26.4329 20.463 26.8252 19.4018C27.6946 18.8573 28.2226 17.9043 28.2235 16.8784V14.7384C28.2231 14.1315 28.0364 13.5394 27.6887 13.042V11.8261C27.8091 10.3383 27.3324 8.86325 26.3629 7.72792C25.0983 6.28685 23.104 5.55139 20.4347 5.55139C17.7654 5.55139 15.7712 6.28086 14.5065 7.72792H14.5069C13.5442 8.85989 13.0675 10.3265 13.1816 11.8078V13.0237C12.8347 13.5195 12.648 14.109 12.6464 14.7137V16.8478C12.6442 17.649 12.9665 18.4166 13.5404 18.976C13.9212 20.2836 14.5218 21.5173 15.3157 22.6242V24.1078C15.314 24.3105 15.2021 24.4967 15.0239 24.5938L10.2633 27.1897V27.1902C9.36886 27.6766 8.62247 28.3955 8.10252 29.2708C7.58213 30.1462 7.30817 31.1454 7.30817 32.1637V34.4255C7.30817 34.9289 7.71658 35.3373 8.22042 35.3373H32.6501C33.1535 35.3373 33.5619 34.9289 33.5619 34.4255V32.3219C33.5649 31.2693 33.2731 30.2374 32.7196 29.3422C32.1662 28.4473 31.3736 27.7247 30.4307 27.2573L30.4306 27.2571ZM31.7376 33.5136L9.14502 33.5131V32.2183C9.14375 31.5279 9.32908 30.8501 9.68109 30.256C10.0331 29.6622 10.5391 29.1741 11.1451 28.8437L15.9057 26.2478C16.2768 26.0395 16.5851 25.7354 16.7989 25.3677C17.0126 25 17.1242 24.5814 17.1221 24.1561V22.3748C17.1216 22.1747 17.055 21.9804 16.9333 21.8214C16.1381 20.7641 15.5558 19.5621 15.2187 18.283C15.1686 18.0875 15.0554 17.9145 14.8968 17.7906C14.6139 17.5731 14.4493 17.2351 14.4527 16.8784V14.7383C14.454 14.455 14.5605 14.1819 14.7509 13.972C14.8997 13.8049 14.982 13.5882 14.9816 13.3642V11.753C14.9837 11.7187 14.9837 11.6839 14.9816 11.6496C14.9137 10.6618 15.2297 9.68636 15.8633 8.92593C16.7692 7.89832 18.2951 7.37542 20.4173 7.37542C22.5391 7.37542 24.0656 7.89834 24.9714 8.92593H24.9709C25.6105 9.69272 25.9265 10.6784 25.8527 11.6738C25.851 11.7085 25.851 11.7429 25.8527 11.7772V13.3642C25.8522 13.5882 25.9345 13.8049 26.0838 13.972C26.2742 14.1819 26.3803 14.455 26.3815 14.7383V16.8724C26.3849 17.3292 26.1139 17.7435 25.6945 17.9242C25.4621 18.0277 25.2835 18.2241 25.2021 18.4654C24.8564 19.4871 24.3649 20.4535 23.7428 21.3349C23.6211 21.505 23.4998 21.6632 23.3903 21.8031C23.25 21.974 23.1766 22.1903 23.1838 22.4113V24.2354C23.183 24.6778 23.3064 25.1116 23.5396 25.4878C23.7725 25.8635 24.1062 26.1668 24.5028 26.3631L29.598 28.9108C30.2372 29.2284 30.7745 29.7183 31.1494 30.3256C31.5243 30.9325 31.7219 31.6322 31.7198 32.346L31.7376 33.5136Z" fill="#0064AD"/>
<path d="M53.0482 52.1363V13.0723C53.0482 12.5685 52.6397 12.1601 52.1363 12.1601H46.9681V6.99186V6.99228C46.9681 6.48845 46.5597 6.08003 46.0563 6.08003H40.8881V0.91225C40.8881 0.408413 40.4797 0 39.9762 0H0.912249C0.408413 0 0 0.408413 0 0.91225V39.9762C0 40.4797 0.408413 40.8881 0.912249 40.8881H6.08047V46.0563H6.08004C6.08004 46.5597 6.48846 46.9681 6.99229 46.9681H12.1605V52.1363H12.1601C12.1601 52.6398 12.5685 53.0482 13.0723 53.0482H52.1363C52.6397 53.0482 53.0482 52.6398 53.0482 52.1363L53.0482 52.1363ZM1.82416 1.82433H39.0642V39.0643H1.82416V1.82433ZM7.90416 40.8883H39.9762C40.4796 40.8883 40.888 40.4799 40.888 39.9765V7.9045H45.1439V45.1445H7.90388L7.90416 40.8883ZM51.2242 51.2242H13.9842V46.9683H46.0562C46.5596 46.9683 46.968 46.5599 46.968 46.0565V13.9845H51.2239L51.2242 51.2242Z" fill="#0064AD"/>
</svg>
