<svg width="69" height="69" viewBox="0 0 69 69" fill="none" xmlns="http://www.w3.org/2000/svg">
<path d="M32.9833 1.04347C23.7087 1.78803 16.3614 9.62371 16.3614 19.1023C16.3614 24.4199 18.6995 29.1977 22.3732 32.5114C10.3495 37.5724 1.87073 49.7735 1.87073 64.056C1.87073 65.2129 2.89784 66.24 4.05472 66.24H64.9447C66.1016 66.24 67.1293 65.2129 67.1293 64.056C67.1293 49.7738 58.6516 37.5714 46.6269 32.5114C50.3007 29.1977 52.6387 24.4192 52.6387 19.1023C52.6387 9.62339 45.2899 1.78798 36.0151 1.04347C34.9613 0.966467 33.9851 0.966467 32.9822 1.04347H32.9833ZM34.4998 5.30785C42.1293 5.30785 48.2722 11.447 48.2722 19.1026C48.2722 23.6494 46.0876 27.6307 42.7218 30.1232C40.4353 31.5875 36.6584 33.6685 34.4998 34.7465C32.3425 33.6679 28.5649 31.5868 26.2778 30.1232C22.912 27.6318 20.728 23.6494 20.728 19.1026C20.7287 11.4477 26.869 5.30785 34.4998 5.30785V5.30785ZM26.7659 35.4922L32.1096 38.3953L25.5835 61.9002H6.39245C7.29227 49.2102 15.616 38.8058 26.7662 35.4922H26.7659ZM42.2336 35.4922C53.3847 38.8058 61.7097 49.2098 62.6073 61.8986H43.4147L36.8899 38.3936L42.2336 35.4922ZM34.4996 46.0497L38.8672 61.8992H30.1317L34.4996 46.0497Z" fill="#fff"/>
</svg>
