<svg width="69" height="69" viewBox="0 0 69 69" fill="none" xmlns="http://www.w3.org/2000/svg">
<g clip-path="url(#clip0_21_11)">
<path d="M45.9211 21.5916C41.4677 18.0717 35.7211 16.8506 30.1184 18.1438C23.5817 19.6525 18.3382 24.8238 16.7579 31.3606C14.9621 38.6154 17.4764 45.9422 23.3663 50.4676C23.7972 50.8268 24.0848 51.4732 24.0848 52.1916V62.0323C24.0848 64.0435 25.7368 65.6955 27.748 65.6955H30.0469C30.6932 67.635 32.4173 68.9999 34.5723 68.9999C36.7274 68.9999 38.4509 67.5635 39.0978 65.6955H41.3966C43.4079 65.6955 45.0598 64.0435 45.0598 62.0323L45.0593 52.1195C45.0593 51.4732 45.2748 50.8985 45.7057 50.5393C50.3028 47.0194 52.9604 41.7042 52.9604 36.0295C52.8888 30.3551 50.3028 25.1116 45.9212 21.5916H45.9211ZM40.5338 61.242H28.4665V57.0758H40.5338V61.242ZM42.9042 47.0196C41.3955 48.169 40.4621 50.0364 40.4621 52.1198V52.6945H28.4664V52.1914C28.4664 50.1086 27.5324 48.169 26.0243 46.9479C21.5709 43.5002 19.6314 37.9691 20.9963 32.3663C22.2168 27.4816 26.1676 23.603 31.124 22.4536C35.4341 21.448 39.8157 22.3819 43.1913 25.0395C46.5673 27.6971 48.5069 31.6479 48.5069 35.9579C48.4352 40.3395 46.424 44.362 42.9041 47.0195L42.9042 47.0196Z" fill="#fff"/>
<path d="M34.5 13.1874C35.7211 13.1874 36.7267 12.1818 36.7267 10.9608V3.99322C36.7267 2.77217 35.7211 1.7666 34.5 1.7666C33.279 1.7666 32.2734 2.7722 32.2734 3.99322V10.9608C32.2734 12.1818 33.279 13.1874 34.5 13.1874V13.1874Z" fill="#fff"/>
<path d="M18.4817 19.7958C19.3436 18.934 19.3436 17.497 18.4817 16.6351L13.5253 11.6787C12.6635 10.8169 11.2265 10.8169 10.3646 11.6787C9.50279 12.5405 9.50282 13.9775 10.3646 14.8394L15.3211 19.7958C15.752 20.2267 16.3267 20.4422 16.9013 20.4422C17.476 20.4422 18.0507 20.2267 18.4816 19.7958H18.4817Z" fill="#fff"/>
<path d="M9.5748 33.6592H2.60723C1.38618 33.6592 0.380615 34.6648 0.380615 35.8858C0.380615 37.1068 1.38622 38.1124 2.60723 38.1124H9.5748C10.7959 38.1124 11.8014 37.1068 11.8014 35.8858C11.8014 34.6648 10.7958 33.6592 9.5748 33.6592Z" fill="#fff"/>
<path d="M66.3928 33.6592H59.4252C58.2042 33.6592 57.1986 34.6648 57.1986 35.8858C57.1986 37.1068 58.2042 38.1124 59.4252 38.1124H66.3928C67.6139 38.1124 68.6194 37.1068 68.6194 35.8858C68.6194 34.6648 67.6138 33.6592 66.3928 33.6592Z" fill="#fff"/>
<path d="M58.635 11.7511C57.7732 10.8893 56.3362 10.8893 55.4744 11.7511L50.5179 16.707C49.6561 17.5688 49.6561 19.0059 50.5179 19.8677C50.9488 20.2986 51.5235 20.5141 52.0982 20.5141C52.6729 20.5141 53.2476 20.2986 53.6785 19.8677L58.6349 14.9113C59.4967 13.9778 59.4967 12.6129 58.6349 11.7511H58.635Z" fill="#fff"/>
<path d="M38.2352 32.007L32.9917 37.2505L30.7651 35.0239C29.8312 34.09 28.3947 34.09 27.5329 35.0239C26.5989 35.9579 26.5989 37.3943 27.5329 38.2561L31.4115 42.1347C31.8424 42.5657 32.4171 42.7811 33.0634 42.7811C33.6381 42.7811 34.2128 42.5657 34.7154 42.1347L41.6114 35.2388C42.5454 34.3048 42.5454 32.8683 41.6114 32.0065C40.6058 31.1452 39.1688 31.1452 38.2354 32.007L38.2352 32.007Z" fill="#fff"/>
</g>
<defs>
<clipPath id="clip0_21_11">
<rect width="69" height="69" fill="white"/>
</clipPath>
</defs>
</svg>
