<svg width="69" height="69" viewBox="0 0 69 69" fill="none" xmlns="http://www.w3.org/2000/svg">
<path d="M25.0609 0.00320854C24.632 0.0497319 24.2251 0.216044 23.8861 0.482885C23.547 0.749726 23.2898 1.10641 23.1443 1.51229L20.94 7.66954H9.96793C9.88825 7.66526 9.80803 7.66526 9.72836 7.66954C9.16099 7.7289 8.63531 7.99734 8.25452 8.42248C7.87372 8.84761 7.66468 9.39894 7.66788 9.96956V66.7C7.66788 67.3102 7.91012 67.8952 8.34168 68.3262C8.77269 68.7577 9.35772 69 9.96789 69H59.032C59.6422 69 60.2272 68.7578 60.6582 68.3262C61.0898 67.8952 61.3321 67.3102 61.3321 66.7V9.96956C61.3321 9.3594 61.0898 8.77437 60.6582 8.34335C60.2272 7.91181 59.6422 7.66955 59.032 7.66955H48.06L45.8556 1.5123C45.6941 1.07059 45.4006 0.688779 45.015 0.419255C44.6294 0.149196 44.1701 0.00374244 43.6995 0.00320854H25.3004C25.2208 -0.00106951 25.1405 -0.00106951 25.0609 0.00320854H25.0609ZM26.9053 4.60325H42.0941L44.2738 10.7359H24.7248L26.9053 4.60325ZM12.2682 12.2695H19.3115C19.0633 12.9711 19.1703 13.7497 19.5986 14.3589C20.0265 14.9679 20.7232 15.3316 21.4676 15.3359H47.5329C48.2773 15.3316 48.974 14.9679 49.4018 14.3589C49.8302 13.7498 49.9371 12.9711 49.689 12.2695H56.7323V64.4002H12.2679L12.2682 12.2695ZM47.3893 32.9438C46.7904 32.9861 46.2316 33.2615 45.8321 33.7107L30.668 50.2411L23.1697 42.1192C22.6087 41.5117 21.7665 41.2492 20.96 41.431C20.1536 41.6128 19.5049 42.2107 19.2589 43C19.0129 43.7893 19.207 44.6503 19.7675 45.2577L28.9668 55.224C29.4064 55.6999 30.0257 55.9684 30.6733 55.9641C31.3209 55.9593 31.9364 55.6817 32.369 55.1999L49.2348 36.8009C49.6546 36.3474 49.8739 35.7442 49.8439 35.127C49.814 34.5099 49.537 33.9307 49.0755 33.5201C48.614 33.1094 48.0065 32.9014 47.39 32.9436L47.3893 32.9438Z" fill="#fff"/>
</svg>
