<svg width="69" height="69" viewBox="0 0 69 69" fill="none" xmlns="http://www.w3.org/2000/svg">
<path d="M68.4695 26.048C68.4695 22.3529 67.03 18.8781 64.4156 16.2624L55.9534 7.79905C53.3536 5.19978 49.9017 3.76816 46.2359 3.76816H46.1342C42.4189 3.79455 38.8936 5.29079 36.2083 7.97992L34.5004 9.68847L32.6115 7.79962C29.9982 5.18511 26.5227 3.74573 22.826 3.74573C19.1304 3.74573 15.6543 5.18526 13.0404 7.79962L4.57762 16.2624C-0.818029 21.6592 -0.818029 30.4389 4.57762 35.8338L9.67119 40.9274C9.70882 42.7269 10.494 44.4612 11.8582 45.7317C13.0113 46.81 14.484 47.4959 15.9857 47.6721C16.2295 49.1723 16.9304 50.9437 18.0918 52.012C19.0871 52.9943 20.4412 53.6295 21.8852 53.8064C22.143 55.3364 22.9181 56.8522 23.9611 57.812C24.8918 58.6657 26.5609 59.6985 28.3913 60.012C29.0883 62.4292 30.334 63.826 32.3783 64.5096C32.7681 64.6399 33.5718 64.86 34.5671 64.86C36.1402 64.86 37.5938 64.3085 38.8098 63.2274C38.8968 63.1386 39.0395 63.0061 39.222 62.8342L39.4118 62.6545C41.5164 60.6843 43.5821 58.641 44.6542 56.9016C45.2647 57.0729 45.9095 57.1616 46.552 57.1616C47.819 57.1616 48.9305 56.8196 49.7382 56.1922C51.2254 55.1301 52.0617 53.5261 52.1111 51.7019C53.6612 51.6413 55.2731 50.9875 56.2746 50.0024C57.3681 48.923 58.0011 47.3021 57.9825 45.7468C59.7837 45.6407 61.3355 44.9487 62.4908 43.7289C64.4649 41.6458 63.9578 38.7449 63.4209 37.7025C63.3686 37.5873 63.3052 37.4969 63.2614 37.4368C63.2108 37.3683 63.1558 37.3037 63.1002 37.2486L63.0524 37.2003L64.4172 35.8361C67.03 33.2189 68.4695 29.7434 68.4695 26.0472L68.4695 26.048ZM36.5948 60.8917C36.0326 61.3894 35.353 61.6421 34.5763 61.6421C34.0225 61.6421 33.5704 61.5107 33.4013 61.4545C32.5347 61.1653 31.8967 60.6351 31.453 58.9749L38.6611 51.4691C38.8324 51.3798 39.025 51.336 39.248 51.336C40.0422 51.336 40.9341 51.91 41.2733 52.3239C41.904 53.0945 42.1281 54.2582 42.1927 54.7002C42.0456 55.1714 41.2273 56.5491 37.2137 60.3032C36.8891 60.6036 36.642 60.8379 36.5948 60.8918L36.5948 60.8917ZM26.0293 40.068C26.3427 39.9663 26.9627 39.799 27.6338 39.799C28.414 39.799 29.0346 40.0231 29.48 40.4634C30.4938 41.4665 30.4016 42.5915 30.2859 43.1054L22.7526 50.6314C21.8371 50.6258 20.9464 50.304 20.3128 49.6794C19.6719 49.0908 19.1895 47.7109 19.1238 46.7358L26.0293 40.068ZM19.9713 34.1084C20.1606 33.9029 20.7234 33.5777 21.4248 33.5777V32.7723L21.4434 33.5777C22.1179 33.5827 22.7138 33.8838 23.2636 34.4965C24.4386 35.804 24.0567 37.1727 23.8298 37.7159L16.8148 44.4899C15.8617 44.5202 14.8222 44.0956 14.0556 43.3778C13.3333 42.7033 12.934 41.8776 12.8907 40.9745L19.9713 34.1084ZM32.6768 45.2694C32.8122 45.2116 33.0626 45.1279 33.3878 45.1279C34.1275 45.1279 34.9211 45.5564 35.6827 46.3669C36.6246 47.37 36.4033 48.7381 36.2432 49.3356L29.0324 56.8449C28.0747 56.7039 26.9116 56.1479 26.1405 55.4413C25.5468 54.8937 25.0734 53.7963 25.0245 52.9128L32.6768 45.2694ZM41.7002 29.7124C41.0706 30.3363 41.0655 31.3579 41.6906 31.9893L54.5534 44.9672C55.0049 45.7209 54.6461 47.0835 54.0136 47.7075C53.5649 48.1495 52.6371 48.4831 51.8541 48.4831C51.5014 48.4831 51.2037 48.4146 51.0116 48.2905L38.0079 34.9616C37.4064 34.3488 36.3483 34.3342 35.7316 34.9358C35.0981 35.5558 35.084 36.5757 35.7035 37.2121L48.7505 50.5825C49.0313 51.5559 48.9302 52.8111 47.8148 53.6093C47.3363 53.9805 46.1271 54.0181 45.2851 53.7165C45.0958 52.7864 44.6757 51.4043 43.7619 50.2832C42.934 49.2711 41.3559 48.2517 39.6001 48.1232C39.5766 46.9089 39.2289 45.442 38.0286 44.1619C36.3796 42.405 34.7172 41.963 33.5529 41.9203C33.4546 40.7987 33.0165 39.4316 31.7444 38.1747C30.6138 37.0565 29.071 36.4942 27.2822 36.5892C27.2945 35.412 26.989 33.8259 25.6596 32.3444C24.2005 30.718 22.5751 30.3651 21.4243 30.3562C19.9847 30.3562 18.4976 30.9577 17.6663 31.857L11.3125 38.0148L6.85356 33.5543C2.71311 29.415 2.71311 22.6786 6.85356 18.5379L15.3169 10.0751C17.3225 8.06951 19.9892 6.9647 22.825 6.9647C25.6608 6.9647 28.3275 8.06945 30.3331 10.0751L32.2196 11.9617C29.9955 14.1684 22.187 21.9258 21.4102 22.8082C20.8395 23.4597 20.5863 24.2601 20.6772 25.1233C20.8087 26.3617 21.6534 27.5929 23.1209 28.683C24.8552 29.9714 26.876 30.6527 28.9643 30.6527C31.5238 30.6527 34.0449 29.6165 36.0635 27.7338C37.5653 26.3353 41.1047 22.8723 42.8009 21.2069L60.5736 39.2744C60.6741 39.6619 60.8702 40.7526 60.1484 41.5142C59.5042 42.1954 58.6107 42.5397 57.4908 42.5397C57.2032 42.5397 56.9078 42.5173 56.6124 42.4712L43.9777 29.723C43.3739 29.1114 42.3141 29.1058 41.6996 29.7124L41.7002 29.7124ZM46.1585 6.98927C49.0162 6.98927 51.6862 8.08616 53.6772 10.0761L62.1412 18.5395C64.1462 20.545 65.2499 23.2112 65.2499 26.0475C65.2499 28.8833 64.1462 31.55 62.1412 33.5556L60.7916 34.9036L43.9678 17.8009C43.6651 17.4948 43.2624 17.324 42.8333 17.3212H42.7631L42.6946 17.3324C42.4822 17.3673 42.0397 17.4414 41.6875 17.7868C41.6375 17.8368 35.8627 23.5212 33.8695 25.3786C32.4569 26.6951 30.713 27.4195 28.9601 27.4195C27.5633 27.4195 26.2085 26.9629 25.0443 26.0991C24.2648 25.5201 23.9767 25.0578 23.9025 24.8601C24.8304 23.8801 33.0169 15.7053 38.4862 10.2592C40.5681 8.17268 43.2928 7.01179 46.1582 6.99051L46.1585 6.98927Z" fill="#fff"/>
</svg>
